<?xml version="1.0" encoding="UTF-8"?><svg id="Layer_1" xmlns="http://www.w3.org/2000/svg" viewBox="0 0 637.73 669.86"><defs><style>.cls-1{stroke-width:5px;}.cls-1,.cls-2{stroke:#231f20;stroke-miterlimit:10;}.cls-2{fill:#fff;stroke-width:.25px;}</style></defs><rect class="cls-2" x=".12" y=".12" width="637.48" height="669.61" rx="168.5" ry="168.5"/><path class="cls-1" d="m130.43,309.97v137.16c0,6.66,4.02,12.69,10.22,15.31l39.05,16.47v.15l121.08,51.1v12.93c0,19.37-19.97,32.43-37.97,24.84l-156.23-65.93c-10.05-4.24-16.57-14.02-16.57-24.83v-222.5c0-19.37,19.97-32.43,37.97-24.83l156.22,65.93c10.05,4.24,16.58,14.02,16.58,24.83v35.83l-121.08-51.1v.27l-25.86-10.91c-11.09-4.68-23.4,3.37-23.4,15.31h0Z"/><path class="cls-1" d="m519.03,229.83l-156.22,65.93c-10.05,4.24-16.58,14.02-16.58,24.83v222.5c0,19.37,19.97,32.43,37.97,24.84l156.23-65.93c10.05-4.24,16.57-14.02,16.57-24.83v-222.5c0-19.37-19.97-32.43-37.97-24.83h0Zm-2.46,217.31c0,6.66-4.02,12.69-10.22,15.31l-96.3,40.64c-11.1,4.69-23.41-3.37-23.41-15.31v-137.16c0-6.66,4.02-12.69,10.22-15.31l96.31-40.64c11.09-4.68,23.4,3.37,23.4,15.31v137.16h0Z"/><circle class="cls-1" cx="323.5" cy="153.52" r="74.11"/></svg>