<?xml version="1.0" encoding="UTF-8"?><svg id="Layer_1" xmlns="http://www.w3.org/2000/svg" viewBox="0 0 637.48 669.61"><defs><style>.cls-1{stroke:#231f20;stroke-miterlimit:10;stroke-width:5px;}</style></defs><path class="cls-1" d="m57.24,314.77v185.77c0,9.02,5.44,17.19,13.84,20.73l52.89,22.31v.2l163.99,69.21v17.51c0,26.23-27.05,43.92-51.42,33.64l-211.6-89.3c-13.61-5.74-22.44-18.99-22.44-33.63V239.86c0-26.23,27.05-43.92,51.42-33.63l211.59,89.29c13.61,5.74,22.45,18.99,22.45,33.63v48.53l-163.99-69.21v.36l-35.03-14.78c-15.02-6.34-31.69,4.57-31.69,20.73Z"/><path class="cls-1" d="m583.56,206.23l-211.59,89.29c-13.61,5.74-22.45,18.99-22.45,33.63v301.36c0,26.23,27.05,43.92,51.42,33.64l211.6-89.3c13.61-5.74,22.44-18.99,22.44-33.63V239.86c0-26.23-27.05-43.92-51.42-33.63Zm-3.33,294.32c0,9.02-5.44,17.19-13.84,20.73l-130.43,55.04c-15.03,6.35-31.7-4.56-31.7-20.73v-185.77c0-9.02,5.44-17.19,13.84-20.73l130.44-55.04c15.02-6.34,31.69,4.57,31.69,20.73v185.77Z"/><circle class="cls-1" cx="318.74" cy="102.88" r="100.38"/></svg>